<svg id="Слой_1" data-name="Слой 1" xmlns="http://www.w3.org/2000/svg" viewBox="0 0 20.96 20.8"><defs><style>.cls-1{fill:#29abe2;}</style></defs><title>accept</title><path class="cls-1" d="M20.85,11.1,20.79,11,19.74,9.31a.4.4,0,0,1,0-.37c.21-.64.41-1.28.62-1.93A.71.71,0,0,0,20,6.14c-.42-.23-.83-.48-1.24-.73l-.56-.31c-.08,0-.14-.09-.15-.2s0-.23,0-.34c-.07-.36-.12-.72-.18-1.09a5.08,5.08,0,0,0-.19-.86.54.54,0,0,0-.39-.37,4.23,4.23,0,0,0-.79-.08c-.52,0-1,0-1.56-.08A.25.25,0,0,1,14.66,2c-.1-.13-.21-.26-.31-.4l-.16-.22c-.31-.4-.6-.81-.95-1.18A.46.46,0,0,0,12.8,0a1.44,1.44,0,0,0-.4.13c-.61.27-1.21.57-1.82.86a.23.23,0,0,1-.18,0L9.7.67C9.22.45,8.75.21,8.26,0A.62.62,0,0,0,7.63.2L7.31.6c-.32.44-.65.87-1,1.31A.37.37,0,0,1,6,2.09l-.92.05c-.4,0-.81,0-1.21.07a.6.6,0,0,0-.49.27A1.11,1.11,0,0,0,3.24,3c-.12.66-.23,1.33-.33,2a.18.18,0,0,1-.09.13l-.67.38a14.12,14.12,0,0,0-1.34.82.47.47,0,0,0-.22.47,1.8,1.8,0,0,0,.09.45c.19.61.39,1.23.59,1.84a.24.24,0,0,1,0,.22C1,9.63.78,10,.55,10.38a6.83,6.83,0,0,0-.49.82.55.55,0,0,0,.07.6,6,6,0,0,0,.42.46l1.23,1.18a.23.23,0,0,1,.07.19c0,.23,0,.47-.05.7,0,.43-.08.86-.11,1.29a.9.9,0,0,0,0,.46.86.86,0,0,0,.57.46c.65.2,1.32.39,2,.57a.19.19,0,0,1,.14.12c.17.41.35.82.52,1.22a9.28,9.28,0,0,0,.39.85.62.62,0,0,0,.64.36l.66-.12,1.56-.31a.21.21,0,0,1,.2.05c.56.46,1.12.93,1.7,1.37a.63.63,0,0,0,.83,0c.58-.44,1.13-.91,1.7-1.37a.19.19,0,0,1,.18,0l1.57.31a4,4,0,0,0,.77.12.53.53,0,0,0,.4-.19,2,2,0,0,0,.24-.4c.28-.6.52-1.21.79-1.82a.23.23,0,0,1,.15-.14c.7-.2,1.41-.38,2.1-.62a.66.66,0,0,0,.47-.68c0-.23,0-.47-.05-.71,0-.46-.07-.92-.11-1.38,0-.08,0-.17,0-.24l.73-.71c.3-.29.61-.58.89-.9A.59.59,0,0,0,20.85,11.1ZM17,6.59a4.77,4.77,0,0,1-.24.44h0c-.45.72-.93,1.42-1.39,2.13l-1.76,2.65c-.6.9-1.19,1.79-1.8,2.68-.28.42-.58.83-.87,1.24a1,1,0,0,1-1.45.14,29.46,29.46,0,0,1-2.2-2.13L5.91,12.36l-1-1.1a.77.77,0,0,1,0-.95A11.33,11.33,0,0,1,6.06,9.12a.61.61,0,0,1,.89,0c.87.8,1.68,1.67,2.54,2.49l.24.22c.1.09.16.05.22,0,.32-.48.65-1,1-1.45l2.17-3.24c.46-.67.92-1.34,1.39-2a.68.68,0,0,1,1-.23c.31.18.6.39.9.6a3,3,0,0,1,.47.4A.59.59,0,0,1,17,6.59Z"/></svg>