<svg id="Слой_1" data-name="Слой 1" xmlns="http://www.w3.org/2000/svg" viewBox="0 0 210 210"><defs><style>.cls-1{fill:#333;}</style></defs><path class="cls-1" d="M159.05,124.38,126.91,156.5l-55-55.06,32.13-32.08ZM86.19,105l32.29,32.23,2.64-2.58-32.2-32.23Zm41.9,23.16,2.49-2.68L98.2,93l-2.66,2.68ZM107.66,83.7l-2.75,2.4,32.37,32.32,2.51-2.6C129.09,105.13,118.34,94.39,107.66,83.7Z"/><path class="cls-1" d="M88.52,53.49,56,86c-1.45-1.5-2.94-3.06-4.45-4.59-2.49-2.54-5.09-5-7.49-7.62a15.42,15.42,0,0,1,.48-21.37q5.14-5.2,10.36-10.35A15.31,15.31,0,0,1,75.86,41c2.87,2.37,5.35,5.22,8,7.86Z"/><path class="cls-1" d="M59.16,88.84l32.3-32.28L101,66.18,68.75,98.39Z"/><path class="cls-1" d="M129.22,158.8l32.23-32.21c.26,1.15.52,2.26.76,3.38,1.06,5,2.09,10,3.18,15a1.48,1.48,0,0,1-.48,1.58q-7.92,7.88-15.79,15.8a1.42,1.42,0,0,1-1.53.36q-8.72-1.86-17.44-3.68C129.85,159,129.55,158.9,129.22,158.8Z"/><path class="cls-1" d="M170.12,167.48,153.35,164l13.25-13.21C167.74,156.19,168.91,161.71,170.12,167.48Z"/></svg>