<svg id="Слой_1" data-name="Слой 1" xmlns="http://www.w3.org/2000/svg" viewBox="0 0 19.73 19.85"><defs><style>.cls-1{fill:#f2f2f2;}</style></defs><title>edit2</title><path class="cls-1" d="M18.07,13.29l-4.9,4.86L4.83,9.75,9.74,4.89ZM7,10.3l4.89,4.92.41-.39L7.42,9.91Zm6.36,3.54.38-.4-4.9-5-.41.41ZM10.28,7.07l-.42.36,4.9,4.94.39-.4Z"/><path class="cls-1" d="M7.39,2.47l-5,4.92c-.22-.23-.44-.47-.67-.7C1.37,6.3,1,5.93.61,5.53A2.34,2.34,0,0,1,.7,2.28c.52-.53,1.05-1,1.58-1.57A2.33,2.33,0,0,1,5.47.56c.43.36.81.8,1.21,1.2Z"/><path class="cls-1" d="M2.9,7.83l4.93-4.9L9.28,4.4,4.35,9.28Z"/><path class="cls-1" d="M13.52,18.5l4.91-4.88.12.52c.16.76.31,1.52.47,2.28a.22.22,0,0,1-.07.24l-2.41,2.39a.2.2,0,0,1-.23.06l-2.65-.57Z"/><path class="cls-1" d="M19.73,19.85l-2.55-.54,2-2C19.38,18.13,19.55,19,19.73,19.85Z"/></svg>